<?xml version="1.0" encoding="UTF-8"?>
<svg xmlns="http://www.w3.org/2000/svg" xmlns:xlink="http://www.w3.org/1999/xlink" version="1.1" viewBox="0 0 410.4 103.25">
  <defs>
    <style>
      .cls-1 {
        fill: url(#_名称未設定グラデーション_2);
      }

      .cls-2 {
        fill: url(#_名称未設定グラデーション_2-2);
      }

      .cls-3 {
        fill: #128341;
      }

      .cls-4 {
        fill: #eaf3e5;
        stroke: #231815;
        stroke-miterlimit: 10;
      }
    </style>
    <linearGradient id="_名称未設定グラデーション_2" data-name="名称未設定グラデーション 2" x1="7439.8" y1="-756.47" x2="7439.8" y2="-809.97" gradientTransform="translate(-7199.14 -723) scale(1 -1)" gradientUnits="userSpaceOnUse">
      <stop offset="0" stop-color="#8aba29"/>
      <stop offset="1" stop-color="#128341"/>
    </linearGradient>
    <linearGradient id="_名称未設定グラデーション_2-2" data-name="名称未設定グラデーション 2" x1="7243.66" y1="-782.54" x2="7316.69" y2="-782.54" xlink:href="#_名称未設定グラデーション_2"/>
  </defs>
  <!-- Generator: Adobe Illustrator 28.7.1, SVG Export Plug-In . SVG Version: 1.2.0 Build 142)  -->
  <g>
    <g id="_レイヤー_1" data-name="レイヤー_1">
      <g>
        <rect class="cls-4" x=".5" y=".5" width="409.4" height="102.25"/>
        <g id="_レイヤー_1-2" data-name="_レイヤー_1">
          <g>
            <path class="cls-1" d="M133.61,57.67c-3.73,4.66-5.21,5.21-6.31,5.21-1.43,0-2.52-1.09-2.52-2.42,0-.66.28-1.31.93-1.92,5.27-4.83,10.21-11.91,12.85-19.39.44-1.21,1.37-1.7,2.36-1.7,1.49,0,3.07,1.15,3.07,2.69,0,1.76-4.94,9.83-5.11,10.11l-.66,32.12c-.06,1.59-1.37,2.42-2.74,2.42-1.27,0-2.52-.77-2.52-2.3v-.12l.66-24.7h-.01ZM145.96,82.83c-1.76,0-2.58-1.09-2.58-2.26s.93-2.48,2.58-2.48l10.6.06v-12.13l-6.2.06c-.93,1.59-5.16,8.46-8.35,8.46-1.54,0-2.74-1.09-2.74-2.42,0-.6.28-1.31.99-1.92,5.11-4.44,8.46-10.59,10.43-17.13l-6.98.06h-.06c-1.7,0-2.52-1.15-2.52-2.36s.87-2.52,2.58-2.52l8.13.06c.55-2.74.93-5.49,1.09-8.07.12-1.65,1.37-2.36,2.64-2.36,1.49,0,2.97.93,2.97,2.48,0,.06-.33,3.51-1.37,7.97l14.77-.06c1.7,0,2.58,1.21,2.58,2.42s-.87,2.48-2.58,2.48l-16.04-.06c-.87,2.91-1.92,5.71-3.13,8.35h16.69c1.76,0,2.64,1.15,2.64,2.36s-.87,2.3-2.64,2.3l-7.69-.06v12.13l10.71-.06c1.65,0,2.47,1.21,2.47,2.42s-.83,2.3-2.48,2.3h-26.52,0ZM231.62,64.76l-3.13-.12c1.48,1.37,3.19,2.64,5.11,3.68.77.38,1.09,1.09,1.09,1.76,0,1.21-.93,2.42-2.26,2.42-.93,0-1.81-.6-3.79-2.2-3.63,3.35-4.66,3.35-4.94,3.35-1.09,0-1.98-.93-1.98-1.81,0-.44.22-.93.71-1.27,1.09-.77,2.36-1.76,3.45-2.91-.93-.99-1.81-2.03-2.58-3.07h-8.62c-.77,1.21-1.65,2.36-2.58,3.45,2.85,1.92,3.07,2.91,3.07,3.45,0,1.15-.99,2.14-2.03,2.14-.49,0-1.05-.22-1.48-.71-.77-.83-1.65-1.54-2.36-2.08-2.2,1.92-3.02,2.48-3.84,2.48-.6,0-1.15-.28-1.54-.71,0,1.86.06,4.56.06,5.99v.12c0,3.35-2.2,5.27-5.55,5.27-2.47,0-4.4-.71-4.4-2.58,0-.99.71-1.98,1.92-1.98.16,0,.33,0,.49.06.55.12,1.05.16,1.54.16.99,0,1.76-.38,1.81-1.81.06-1.49.06-3.95.06-6.76h-4.72c-.77,7.3-3.41,13.89-6.26,13.89-1.27,0-2.42-1.05-2.42-2.2,0-.44.12-.83.44-1.21,3.73-4.72,4.4-12.19,4.4-19.33,0-3.23-.12-6.42-.16-9.28v-.16c0-3.63,2.42-4.34,6.15-4.34.87,0,1.65,0,2.42.06,2.64.16,4.22,1.92,4.22,4.5v16.75c.12-.16.33-.28.49-.38,2.14-1.37,3.9-2.97,5.38-4.72l-3.23.12h-.06c-1.21,0-1.81-.93-1.81-1.86,0-.87.6-1.81,1.81-1.81h.06l5.77.06c.6-.99,1.09-2.08,1.54-3.13l-5.71.06h-.06c-1.27,0-1.92-.87-1.92-1.76,0-.93.66-1.81,1.98-1.81h1.92l-.06-.12c-.83-1.59-1.54-2.3-1.98-2.85-.22-.28-.33-.6-.33-.87,0-.99,1.21-1.76,2.26-1.76,1.76,0,3.79,3.23,3.79,4.34,0,.44-.16.87-.49,1.27h1.76c.44-1.7.77-3.45.93-5.16.12-1.27,1.09-1.76,2.14-1.76s2.3.66,2.3,1.81c0,.44-.22,1.43-1.21,5.11h2.52c.6-1.27,1.09-2.42,1.92-4.62.28-.71.93-1.05,1.7-1.05,1.21,0,2.52.83,2.52,1.92,0,.44-1.05,2.42-1.81,3.73h2.85c1.31,0,1.92.87,1.92,1.76s-.66,1.81-1.86,1.81h-.06l-5.49-.06c.55,1.09,1.21,2.14,1.92,3.13l6.26-.06h.06c1.27,0,1.92.93,1.92,1.81,0,.93-.66,1.86-1.92,1.86h-.06.01ZM220.26,44.72v.22c0,1.59-1.31,2.42-2.58,2.42s-2.36-.71-2.36-2.2v-.44h-8.56v1.37c0,1.59-1.31,2.42-2.64,2.42-1.21,0-2.42-.71-2.42-2.2v-1.59h-11.04c-1.7,0-2.58-1.15-2.58-2.26s.87-2.26,2.58-2.26h11.04v-2.08c0-1.49,1.27-2.26,2.52-2.26s2.52.77,2.52,2.26v2.08h8.56v-2.08c0-1.49,1.27-2.26,2.47-2.26s2.47.77,2.47,2.26v2.08h11.3c1.65,0,2.47,1.09,2.47,2.2s-.87,2.3-2.47,2.3h-11.3,0ZM199.88,62.07h-4.4c0,1.65,0,3.35-.06,5h4.44v-5h.01ZM199.82,58.06c0-1.54,0-2.91-.06-4.06,0-.83-.33-1.37-1.37-1.43h-1.65c-.83.06-1.27.6-1.27,1.43v4.06h4.34ZM206.96,82c-1.27,0-2.08-1.15-2.08-2.2,0-.71.38-1.43,1.21-1.7,3.07-.99,4.22-1.7,6.58-3.29.33-.22.66-.33.99-.33.93,0,1.65.87,1.65,1.86,0,.6-.22,1.21-.87,1.7-4.44,3.41-6.64,3.95-7.47,3.95h0ZM216.46,67.5c0-1.31.99-1.98,2.03-1.98,2.26,0,2.26,1.76,2.26,3.51,0,2.3-.06,5.55-.06,6.31,0,1.15.12,3.23.12,4.66v.12c0,2.3-1.54,4.56-5.43,4.56-3.51,0-4.06-1.05-4.06-2.36,0-1.05.66-2.08,1.7-2.08.12,0,.22,0,.38.06.44.12.99.16,1.48.16.87,0,1.59-.28,1.65-1.31v-2.69c0-2.97,0-7.19-.06-8.9v-.06h0ZM221.07,61.14c-.66-1.09-1.21-2.2-1.59-3.19h-1.43c-.44,1.09-.87,2.14-1.37,3.19h4.4-.01ZM229.42,82c-2.03-1.65-4.18-2.74-6.48-3.45-.99-.28-1.37-.99-1.37-1.65,0-.93.83-1.92,2.03-1.92,1.31,0,6.04,1.7,8.18,3.13.87.6,1.21,1.37,1.21,2.14,0,1.21-.87,2.36-2.08,2.36-.44,0-.99-.16-1.48-.6h0ZM292.18,77.77c1.65,0,2.42,1.27,2.42,2.48s-.77,2.52-2.36,2.52c-6.48.16-12.96.22-19.39.22-5.21,0-10.37-.06-15.32-.16-4.78-.12-7.08-2.58-7.25-6.64-.16-4.12-.22-8.78-.22-13.62,0-5.87.12-11.86.22-17.24.06-3.51,2.69-5.93,6.8-5.99,4.78-.12,10.59-.12,16.47-.12s11.91,0,17.03.12c1.65,0,2.42,1.21,2.42,2.42s-.77,2.36-2.42,2.36c-7.08-.06-15.64-.12-22.74-.12-3.19,0-6.09,0-8.46.06-3.13.06-3.95.93-4.01,3.73-.12,4.44-.16,9-.16,13.46s.06,8.84.16,12.96c.12,3.13,1.21,3.63,4.56,3.73,3.29.06,6.98.12,10.87.12,6.7,0,14.06-.12,21.31-.28h.07ZM288.29,62.62l-11.09-.16c2.58,4.18,6.98,7.08,11.26,8.56,1.37.5,1.98,1.54,1.98,2.58,0,1.31-.99,2.58-2.64,2.58-3.07,0-10.49-5.05-13.78-10.98-4.83,9.99-14.49,11.26-14.65,11.26-1.48,0-2.36-1.27-2.36-2.48,0-.99.55-1.98,1.98-2.36,6.48-1.65,9.66-5.33,11.14-9.22l-10.37.22h-.06c-1.48,0-2.2-1.05-2.2-2.14s.77-2.26,2.26-2.26h11.36l.16-1.65c.06-1.09.06-2.42.06-3.73h-5.43c-2.69,4.01-3.73,4.28-4.66,4.28-1.31,0-2.58-.93-2.58-2.08,0-.44.16-.87.6-1.31,2.47-2.58,3.73-4.66,5.11-8.07.38-.87,1.09-1.21,1.92-1.21,1.31,0,2.69.93,2.69,2.2,0,.12,0,.33-.66,1.86h16.53c1.43,0,2.14,1.09,2.14,2.14s-.71,2.2-2.14,2.2h-8.4c0,.66-.06,4.06-.28,5.38h12.13c1.48,0,2.2,1.09,2.2,2.2s-.71,2.2-2.14,2.2h-.09ZM312.23,85.13c-1.37,0-2.69-.83-2.69-2.42,0-9.99.06-28.05.28-39.65.12-5.21,3.02-5.21,7.97-5.21,1.05,0,2.08,0,3.02.06,3.13.12,4.72,1.81,4.72,4.17,0,1.05-.33,2.69-3.23,8.94-.28.55-.38,1.05-.38,1.54,0,.71.28,1.43.87,2.2,1.92,2.42,2.97,4.78,2.97,8.51,0,4.78-3.02,8.35-6.92,8.35-.93,0-3.79-.22-3.79-2.64,0-1.21.83-2.36,1.98-2.36.22,0,.38.06.6.12.28.06.49.12.77.12,1.21,0,2.58-1.05,2.58-3.95,0-2.52-.77-4.5-2.14-6.42-1.05-1.49-1.48-2.69-1.48-3.9,0-.99.28-1.98.77-3.13,1.21-2.64,2.2-5.93,2.2-6.31,0-.66-.28-1.09-2.26-1.09s-3.13.06-3.13,1.92c-.06,5.11-.12,11.58-.12,18.4v20.36c0,1.59-1.31,2.42-2.58,2.42h0ZM320.47,82.27c0-1.05.66-2.14,2.08-2.64,7.36-2.64,9.5-6.98,10.37-12.74.22-1.49,1.31-2.14,2.42-2.14,1.37,0,2.8.99,2.8,2.52,0,.12,0,.28-.06.44-2.58,14.83-14.22,17.07-14.93,17.07-1.7,0-2.69-1.21-2.69-2.52h.01ZM350.12,51.96v-2.26c0-1.98-.77-2.36-2.52-2.42-2.2-.06-4.83-.12-7.36-.12s-5.11.06-7.08.12c-2.03.06-2.64.6-2.64,2.26v2.36c0,1.54-1.27,2.3-2.52,2.3s-2.52-.77-2.52-2.3v-2.74c0-2.52.12-5.99,5.59-6.15,1.92-.06,4.01-.12,6.15-.12l-.06-3.9v-.06c0-1.7,1.37-2.58,2.8-2.58s2.8.87,2.8,2.58v.06l-.06,3.9c2.42,0,4.83,0,6.98.12,3.57.16,5.65,1.76,5.65,5.05v3.84c-.12,1.54-1.43,2.36-2.74,2.36s-2.47-.77-2.47-2.26v-.06h0ZM351.37,74.26c0-1.54,1.15-2.2,2.36-2.2.87,0,2.8.38,2.8,2.64,0,7.79-2.97,9.28-8.9,9.28s-7.19-2.36-7.19-6.31c0-1.86.06-10.27.16-13.89l-12.35.12c-1.49,0-2.26-1.15-2.26-2.3s.77-2.26,2.26-2.26h24.92c1.43,0,2.14,1.15,2.14,2.3s-.71,2.26-2.08,2.26h-.06l-7.47-.12c-.06,3.29-.22,9.72-.22,12.41,0,1.49.22,2.85,2.2,2.85,3.07,0,3.68-.83,3.68-4.18v-.6h.01ZM333.75,55.53c-1.54,0-2.3-1.09-2.3-2.2s.77-2.2,2.3-2.2h13.23c1.43,0,2.14,1.09,2.14,2.2s-.71,2.2-2.14,2.2h-13.23Z"/>
            <path class="cls-2" d="M55.56,72.71c-2.59-13.6,3.7-33.98,28.12-40.58,18.69-5.5,22.51-11.37,25.96-9.9,3.45,1.49,11.65,28.02,5.94,45.98-9.8,30.81-35.01,25.72-48.41,22.9-2.19-.46-1.22-2.37-.44-3.11,18.18-16.92,27.14-31.97,28.83-38.71,3-12.01-9.73,16.46-46.67,47.54-2.96,1.49-6.08-3.71-3.3-5.99,8-6.57,12.13-6.8,9.97-18.13Z"/>
            <path class="cls-3" d="M157.94,21.72h-1.62c-.5,0-.76-.37-.76-.74s.26-.74.76-.74h1.6v-3.7c0-.51.4-.76.81-.76s.83.24.83.76v3.7h1.39c.46,0,.69.37.69.74s-.23.74-.69.74h-1.4v3.96c.37-.17.74-.36,1.07-.54.16-.09.3-.13.44-.13.43,0,.76.32.76.69,0,.24-.16.51-.51.7-.62.33-4.42,2.26-5.15,2.26-.47,0-.77-.4-.77-.81,0-.32.17-.63.56-.76.67-.23,1.34-.46,1.99-.73,0,0,0-4.65,0-4.65ZM165.53,21.57l-1.6.81c0,2.13,0,4.28.02,5.21.03,1.04,1.04,1.06,2.57,1.06,2.15,0,3.17-.07,3.17-1.82,0-.53.37-.77.77-.77.16,0,.9.06.9.9,0,3.19-2.46,3.19-4.74,3.19-1.97,0-4.22-.06-4.26-2.26-.02-1.11-.02-2.87-.02-4.7l-1.07.54c-.13.06-.23.09-.33.09-.4,0-.7-.39-.7-.77,0-.24.13-.51.43-.66l1.69-.84c0-1.53.03-2.98.03-3.93,0-.51.4-.77.79-.77s.77.24.77.74h0c-.02.74-.02,1.89-.02,3.15l1.6-.79v-3.89c0-.47.39-.73.79-.73s.77.24.77.73v3.1l.86-.44c.44-.23.83-.32,1.16-.32,1.27,0,1.32,1.25,1.32,2.2,0,4.03-.39,5.42-2.19,5.42-.79,0-1.04-.28-1.04-.84,0-.39.2-.77.56-.77.06,0,.1.02.17.03s.14.03.21.03c.28,0,.73-.24.73-3.22,0-.74-.01-1.2-.3-1.2-.07,0-.13.02-.2.06-.26.14-.74.39-1.3.67v5.78c0,.44-.39.67-.79.67s-.77-.23-.77-.67v-4.98h.01ZM177.03,20.87h-1.13c-.49,0-.74-.37-.74-.74s.24-.74.74-.74h1.13v-2.92c0-.51.4-.76.81-.76s.83.24.83.76v2.92h1.02c.46,0,.69.37.69.74s-.23.74-.69.74h-1.02l-.02,3.93c.33-.14.66-.3.96-.46.14-.07.26-.1.39-.1.39,0,.67.33.67.69,0,.26-.14.54-.49.73-1.66.89-3.96,1.85-4.46,1.85s-.79-.4-.79-.81c0-.32.2-.63.58-.74.54-.16,1.06-.32,1.55-.5l-.02-4.58h.01ZM180.25,28.28c-.46,0-.74-.43-.74-.84,0-.3.16-.6.51-.69,1.78-.44,3.28-.97,4.63-1.62.1-.06.21-.07.3-.07.36,0,.6.36.6.7,0,.24-.1.5-.37.63-2.13,1.2-4.82,1.89-4.93,1.89ZM186.9,19.51c.06,1.76.16,3.61.4,5.19.49-.93.86-1.99,1.22-3.26.09-.32.36-.46.63-.46.44,0,.96.33.96.81,0,.13-.77,2.75-2.38,4.92.39,1.44.89,1.93,1.07,1.93.23,0,.43-.39.54-1.4.06-.43.39-.63.73-.63.43,0,.86.3.86.87s-.49,2.85-2.2,2.85c-.76,0-1.5-.37-2.19-2.26-1.52,1.5-3.68,2.49-4.12,2.49-.47,0-.79-.37-.79-.77,0-.32.2-.63.63-.79,1.57-.58,2.82-1.37,3.82-2.57-.44-2.04-.66-4.55-.76-6.92h-4.7c-.54,0-.81-.39-.81-.76s.26-.76.81-.76l4.33.02h.32c-.02-.73-.03-1.43-.06-2.1h0c0-.53.43-.79.84-.79s.83.24.83.79v.02c-.02.63-.02,1.34-.02,2.08l2.75-.02c.54,0,.83.37.83.74s-.28.77-.83.77h-2.73.01ZM182.68,25.12c-.89,0-1.9-.06-1.96-1.11-.02-.3-.02-.67-.02-1.07,0-.53,0-1.07.02-1.47.03-1,.87-1.07,2.03-1.07,1.06,0,1.89.13,1.92,1.06.01.56.03,1.17.03,1.76,0,1.34,0,1.92-2.03,1.92v-.02ZM183.41,22.83c0-.32,0-.63-.02-.93,0-.23-.13-.3-.67-.3-.48,0-.73.39-.73,1.16,0,.28.02.56.02.77.02.16.07.3.67.3.48,0,.73-.33.73-1ZM188.78,17.49c-.37-.47-.81-.7-1.23-.92-.17-.1-.26-.24-.26-.39,0-.36.39-.73.76-.73.44,0,1.89.74,1.89,1.44,0,.43-.37.79-.73.79-.16,0-.3-.06-.43-.21h0ZM196.92,29.04c-.33-1.07-.46-2.22-.46-3.36,0-3.1.9-6.12.99-7.34.06-.6.44-.84.84-.84.44,0,.87.3.87.77,0,.03,0,.09-.01.14-.24,1.29-1.14,4.55-1.14,6.29,0,.66.13.73.17.73.03,0,.09-.03.13-.13.54-1.04.67-1.25,1.04-1.25s.73.36.73.74c0,.1-.02.21-.09.32-.84,1.46-1.32,2.79-1.32,3.32,0,.16.02.32.02.47,0,.86-.69.92-.89.92-.36,0-.73-.23-.89-.76h.01ZM206.71,28.94c-3.05,0-5.38-1.82-5.38-2.68,0-.46.43-.83.92-.83.26,0,.54.1.79.39.74.83,1.99,1.17,3.42,1.17.49,0,.99-.03,1.5-.1.07-.02.14-.02.21-.02.6,0,.87.4.87.84,0,.92-.77,1.22-2.34,1.22h0ZM204.72,21.2c-.77,0-1.6-.07-2.37-.26-.53-.13-.74-.46-.74-.79,0-.43.33-.83.81-.83.06,0,.1,0,.17.02.58.13,1.16.17,1.7.17.76,0,1.47-.09,2.16-.17.06,0,.1-.02.16-.02.54,0,.84.4.84.83,0,.7-.49,1.06-2.75,1.06h.01ZM218.17,29.8c0,.47-.44.73-.86.73s-.86-.23-.86-.73v-.02l.07-6.55c-.49.9-1.06,1.76-1.63,2.46-.21.26-.47.37-.73.37-.44,0-.84-.36-.84-.77,0-.2.09-.4.28-.6.96-.97,2.22-2.79,2.92-4.51v-.07l-1.85.03h-.02c-.49,0-.74-.37-.74-.76s.24-.77.76-.77h1.83l-.06-2.87v-.02c0-.5.44-.76.87-.76s.84.24.84.76v.02s-.03,1.32-.06,2.87h1.25c.51,0,.77.39.77.77s-.26.76-.76.76h-.02l-1.27-.03c0,.46-.02.93-.02,1.34.46,0,2.06,1.02,2.06,1.69,0,.44-.39.83-.79.83-.17,0-.37-.09-.51-.28-.21-.28-.49-.62-.76-.89.02,2.73.09,6.98.09,6.98v.02h.03ZM222.22,23v.7c0,1.13-.01,2.98-.01,4.14.66-.26,1.22-.53,1.69-.79.13-.07.24-.1.37-.1.39,0,.7.33.7.7,0,.24-.14.51-.47.7-1.89,1.07-4.62,2.03-5.11,2.03s-.79-.4-.79-.81c0-.32.2-.66.62-.76.46-.1.92-.23,1.36-.37,0-8.78,0-9.9.03-11.29.01-.81.58-1.53,1.78-1.59.66-.03,1.3-.03,1.93-.03s1.29,0,1.89.03c1.04.06,1.7.74,1.74,1.57.03.93.07,2,.07,3.03,0,.39,0,.77-.02,1.13-.03.92-.86,1.66-1.9,1.7-.33.02-.66.03-.99.03.13.66.3,1.27.53,1.83.69-.4,1.34-.9,1.99-1.46.14-.13.3-.17.46-.17.43,0,.84.43.84.86s-.4.89-2.72,1.93c.66,1.07,1.59,1.96,2.92,2.64.37.2.53.5.53.77,0,.46-.37.89-.93.89-1.2,0-4.32-2.69-5.16-7.29-.44,0-.9-.02-1.36-.03h0ZM226.4,18.54c-.02-.32-.03-.62-.06-.9-.07-.73-.4-.74-2.12-.74-1.59,0-2,0-2,.76,0,.3-.01.58-.01.87h4.19ZM222.22,19.91v1.67c.51.02,1.14.03,1.74.03s1.22-.02,1.66-.03c.77-.03.79-.58.79-1.67h-4.19ZM240.7,19.36c-.79-1.43-.86-1.9-.86-1.99,0-.5.39-.76.81-.76s.86.26,1.02.84c.1.4.36.93.63,1.5.26-.09.53-.17.79-.28.2-.07.36-.1.51-.1.53,0,.83.4.83.81,0,.67-.47.81-1.34,1.06,1.53,2.73,2.42,4.35,2.42,5.46,0,.7-.36.99-.77.99-.3,0-.63-.13-.92-.37-.66-.54-2.82-.96-4.06-.96-1.4,0-2.12.69-2.12,1.17,0,.77,1.52,1.3,3.09,1.3.28,0,.56-.01.84-.03h.16c.69,0,1.02.4,1.02.84,0,.5-.4,1-1.14,1-3.59,0-5.71-1.39-5.71-2.98,0-.86.93-2.8,3.99-2.8,1.22,0,2.36.26,3.26.39.07,0,.13.01.16.01s.06-.01.06-.03c0-.03-.03-.7-1.82-3.65-1.47.26-1.73.29-1.96.29-2.04,0-3.75-1.74-3.75-2.46,0-.44.4-.74.84-.74.28,0,.58.1.83.39.9,1.02,1.74,1.22,2.27,1.22.13,0,.24,0,.33-.02l.58-.1h.01ZM245.48,18.81c-.17-.3-.92-1.06-1.23-1.27-.23-.16-.33-.33-.33-.51,0-.32.33-.62.73-.62.46,0,2.08,1.2,2.08,1.9,0,.44-.39.79-.76.79-.17,0-.36-.09-.47-.3h-.01ZM247.52,17.75c-.2-.3-.93-1.02-1.27-1.22-.24-.14-.36-.33-.36-.51,0-.32.33-.63.73-.63.56,0,2.12,1.14,2.12,1.86,0,.43-.37.77-.74.77-.17,0-.36-.09-.47-.28h-.01ZM260.56,29.77c-3.52,0-3.66-2.04-3.66-3.79,0-2,.21-4.56.21-6.64,0-.76-.03-1.44-.1-2,0-.06-.02-.13-.02-.17,0-.58.46-.87.92-.87s.93.3.99.84c.03.39.06.81.06,1.27,0,2.16-.37,4.93-.37,7.29,0,1.44.07,2.33,1.82,2.33,1.93,0,3.88-.77,4.21-.92.21-.09.39-.13.54-.13.54,0,.86.4.86.84s-.26.87-.86,1.11c-.39.14-2.29.84-4.58.84v.02ZM279.03,19.8c-1.63,4.51-2.92,6.8-4.09,9.24-.16.33-.49.5-.84.5-.46,0-.92-.29-.92-.76,0-.14.03-.32.14-.5.93-1.67,2.39-4.19,3.82-7.95l-.2.06c-.54.16-1.06.23-1.5.23-.17,0-1.55,0-1.55-.96,0-.44.28-.9.77-.9.16,0,.33.03.53.14.14.07.28.1.46.1.58,0,1.63-.33,2.06-.5.09-.44.13-.83.13-1.4,0-.54.49-.83.97-.83.4,0,.77.2.83.63.02.09.02.2.02.3s0,.21-.02.33c.07-.02.14-.03.23-.03.47,0,.83.4.83.81,0,.46-.32.77-1.62,1.36l-.06.13h.01ZM284.4,29.71c-2.89,0-4.79-1.53-4.79-2.43,0-.5.4-.93.86-.93.23,0,.47.1.69.39.67.9,1.23,1.02,3.53,1.19.62.03.9.46.9.87,0,.92-.92.92-1.2.92h0ZM285.42,23.09c-.83-.32-2.12-.81-3.12-.81-.21,0-.43.02-.6.07-.07.02-.14.03-.2.03-.4,0-.67-.36-.67-.73,0-.28.09-.93,1.66-.93.99,0,2.27.26,3.58.79.4.16.56.47.56.77,0,.44-.36.86-.84.86-.13,0-.24-.01-.37-.07h-.01ZM305.73,28.32c.53,0,.77.4.77.79s-.24.81-.76.81c-2.08.06-4.16.07-6.22.07-1.67,0-3.33-.02-4.92-.06-1.53-.03-2.27-.83-2.33-2.13-.06-1.32-.07-2.82-.07-4.36,0-1.89.03-3.8.07-5.53.02-1.13.86-1.9,2.19-1.92,1.53-.03,3.4-.03,5.28-.03s3.82,0,5.46.03c.53,0,.77.39.77.77s-.24.76-.77.76c-2.27-.01-5.02-.03-7.29-.03-1.02,0-1.96,0-2.72.02-1,.01-1.27.3-1.29,1.2-.03,1.43-.06,2.89-.06,4.32s.01,2.83.06,4.16c.03,1,.39,1.16,1.46,1.2,1.06.02,2.23.03,3.49.03,2.15,0,4.51-.03,6.84-.09h.02ZM304.48,23.46l-3.56-.06c.83,1.34,2.23,2.27,3.61,2.75.44.16.63.5.63.83,0,.43-.32.83-.84.83-.99,0-3.36-1.62-4.42-3.52-1.55,3.2-4.65,3.61-4.7,3.61-.47,0-.76-.4-.76-.79,0-.32.17-.63.63-.76,2.08-.53,3.1-1.7,3.58-2.96l-3.33.07h-.02c-.47,0-.7-.33-.7-.69s.24-.73.73-.73h3.65l.06-.53c.02-.36.02-.77.02-1.2h-1.74c-.86,1.29-1.2,1.37-1.5,1.37-.43,0-.83-.3-.83-.67,0-.14.06-.28.2-.43.79-.83,1.2-1.5,1.63-2.59.13-.28.36-.39.62-.39.43,0,.86.3.86.7,0,.03,0,.1-.21.6h5.3c.46,0,.69.36.69.69,0,.36-.23.7-.69.7h-2.69c0,.21-.02,1.3-.09,1.73h3.89c.47,0,.7.36.7.7s-.23.7-.69.7h-.01l-.03.02ZM320.72,27.41c0,.37.03.92.03,1.34-.02.99-.49,1.86-2.12,1.86-.69,0-1.63-.02-1.63-.86,0-.37.21-.73.6-.73.06,0,.09.02.13.02.33.06.63.1.86.1.43,0,.67-.16.67-.67v-1.44c-2.12,0-3.02-.1-3.06-1.57v-1.39c-.36.23-1.07.69-1.37.69-.24,0-.44-.13-.56-.28-.24,2.03-.81,3.91-1.93,5.38-.23.3-.51.43-.77.43-.44,0-.83-.33-.83-.74,0-.14.06-.3.16-.44,1.09-1.43,1.62-2.99,1.86-4.65-.73.47-1.3.69-1.47.69-.47,0-.77-.46-.77-.87,0-.3.14-.58.49-.69.74-.21,1.32-.46,1.9-.79.01-.37.01-.73.01-1.09v-.46c-.14.24-.4.39-.66.39-.21,0-.43-.1-.54-.37-.24-.5-.56-.93-.83-1.16-.17-.16-.24-.32-.24-.47,0-.36.39-.63.76-.63.6,0,1.34,1.09,1.5,1.37-.02-.54-.06-1.09-.09-1.63v-.23c0-1.3.7-1.89,2.22-1.9.9-.02,2.04-.02,3.26-.03v-.63c0-.58.44-.86.9-.86s.9.28.9.86v.62c1.82,0,3.61,0,4.89.03.56.02.81.37.81.7,0,.37-.28.74-.81.74h-.02c-1.23-.02-2.9-.03-4.56-.03.06.09.07.16.07.26,0,.06,0,.1-.02.16l-.21.63,4.46-.03c.47,0,.73.33.73.67,0,.36-.24.69-.7.69h-.02l-2.85-.06c.36.51.74.97,1.2,1.36.4-.29.81-.67,1.06-.97.13-.14.28-.21.43-.21.39,0,.76.36.76.73,0,.46-1.04,1.07-1.23,1.19.51.33,1.04.62,1.6.84.3.13.43.37.43.6,0,.39-.32.79-.77.79-.33,0-.74-.21-1.7-.9v.53c0,2.45-.14,2.8-2.85,2.8v.37l-.02-.05ZM314.7,30.33c-.46,0-.74-.43-.74-.81,0-.28.14-.56.47-.69,1.06-.37,1.76-.74,2.6-1.5.13-.1.24-.16.37-.16.36,0,.69.39.69.79,0,.17-.06.36-.21.5-1.16,1.11-2.82,1.86-3.19,1.86h0ZM315.54,20.34h-.02c-.46,0-.7-.36-.7-.69s.23-.67.73-.67l3.19.02c.09-.28.17-.54.23-.83.02-.09.03-.16.07-.21-1.5,0-2.89.01-3.84.03-.58.02-.84.26-.84.73v.06c.03.89.07,1.78.07,2.69,0,.73-.02,1.43-.07,2.13.06-.06.13-.1.21-.14.63-.28,1.2-.62,1.67-.97-.32-.28-.58-.44-.93-.62-.24-.13-.33-.3-.33-.47,0-.33.36-.69.76-.69s.99.46,1.5.9c.39-.43.73-.86.97-1.32l-2.64.06h0ZM322.11,23.6c-.02-.58-.33-.58-2.13-.58-1.99,0-2.33,0-2.36.63v.3h4.49v-.36ZM322.11,24.96h-4.49v.4c.06.54.28.54,2.22.54s2.23,0,2.27-.58v-.37ZM319.66,20.27c-.32.58-.67,1.13-1.09,1.63.4,0,.81-.02,1.23-.02.58,0,1.17.02,1.8.03-.46-.53-.86-1.09-1.13-1.66h-.81ZM324.08,30.03c-.62-.63-1.46-1.13-2.22-1.4-.32-.1-.44-.36-.44-.58,0-.37.3-.74.73-.74.32,0,3.19.92,3.19,2.08,0,.46-.36.89-.76.89-.16,0-.33-.07-.49-.23v-.02Z"/>
          </g>
        </g>
      </g>
    </g>
  </g>
</svg>